<svg id="visual" viewBox="0 0 960 300" width="960" height="300" xmlns="http://www.w3.org/2000/svg" xmlns:xlink="http://www.w3.org/1999/xlink" version="1.1"><rect x="0" y="0" width="960" height="300" fill="#ffcd07"></rect><path d="M0 206L22.8 214.3C45.7 222.7 91.3 239.3 137 247.5C182.7 255.7 228.3 255.3 274 250.7C319.7 246 365.3 237 411.2 229.8C457 222.7 503 217.3 548.8 213.5C594.7 209.7 640.3 207.3 686 211.7C731.7 216 777.3 227 823 235.3C868.7 243.7 914.3 249.3 937.2 252.2L960 255L960 301L937.2 301C914.3 301 868.7 301 823 301C777.3 301 731.7 301 686 301C640.3 301 594.7 301 548.8 301C503 301 457 301 411.2 301C365.3 301 319.7 301 274 301C228.3 301 182.7 301 137 301C91.3 301 45.7 301 22.8 301L0 301Z" fill="#FFF" stroke-linecap="round" stroke-linejoin="miter"></path></svg>