<svg id="visual" viewBox="0 0 960 300" width="960" height="300" xmlns="http://www.w3.org/2000/svg" xmlns:xlink="http://www.w3.org/1999/xlink" version="1.1"><rect x="0" y="0" width="960" height="300" fill="#33CCCC"></rect><path d="M0 235L22.8 227.5C45.7 220 91.3 205 137 209.2C182.7 213.3 228.3 236.7 274 244.2C319.7 251.7 365.3 243.3 411.2 234.2C457 225 503 215 548.8 209.3C594.7 203.7 640.3 202.3 686 202.8C731.7 203.3 777.3 205.7 823 215.5C868.7 225.3 914.3 242.7 937.2 251.3L960 260L960 301L937.2 301C914.3 301 868.7 301 823 301C777.3 301 731.7 301 686 301C640.3 301 594.7 301 548.8 301C503 301 457 301 411.2 301C365.3 301 319.7 301 274 301C228.3 301 182.7 301 137 301C91.3 301 45.7 301 22.8 301L0 301Z" fill="#FFCC00" stroke-linecap="round" stroke-linejoin="miter"></path></svg>