<?xml version="1.0" encoding="UTF-8" standalone="no"?> <!-- Created with Vectornator for iOS (http://vectornator.io/) --><!DOCTYPE svg PUBLIC "-//W3C//DTD SVG 1.1//EN" "http://www.w3.org/Graphics/SVG/1.1/DTD/svg11.dtd">
<svg style="fill-rule:evenodd;clip-rule:evenodd;stroke-linecap:round;stroke-linejoin:round;" xmlns:vectornator="http://vectornator.io" xmlns:xlink="http://www.w3.org/1999/xlink" xmlns="http://www.w3.org/2000/svg" xml:space="preserve" version="1.1" viewBox="0 0 365.447 365.447">
<metadata>
<vectornator:setting key="DynamicGuides" value="1"/>
<vectornator:setting key="Units" value="Points"/>
<vectornator:setting key="GuidesVisible" value="1"/>
<vectornator:setting key="RulersVisible" value="1"/>
<vectornator:setting key="SnapToGuides" value="1"/>
<vectornator:setting key="GridSpacing" value="36"/>
</metadata>
<defs/>
<g id="Untitled" vectornator:layerName="Untitled">
<path d="M3.35175+186.075L135.873+186.075C137.724+186.075+139.225+187.576+139.225+189.427L139.225+189.427C139.225+191.278+137.724+192.779+135.873+192.779L3.35175+192.779C1.50063+192.779+0+191.278+0+189.427L0+189.427C0+187.576+1.50063+186.075+3.35175+186.075Z" opacity="1" fill="#ffcc00"/>
<path d="M306.069+189.427L7.5+189.427C3.357+189.427+0+186.069+0+181.927C0+177.785+3.357+174.427+7.5+174.427L304.619+174.427C305.088+174.335+305.573+174.287+306.069+174.287C330.539+174.287+350.447+154.379+350.447+129.909C350.447+105.439+330.539+85.53+306.069+85.53C281.599+85.53+261.691+105.438+261.691+129.908C261.691+134.05+258.334+137.408+254.191+137.408C250.048+137.408+246.691+134.05+246.691+129.908C246.691+97.167+273.328+70.53+306.069+70.53C338.81+70.53+365.447+97.167+365.447+129.908C365.447+162.132+339.646+188.443+307.618+189.266C307.118+189.372+306.601+189.427+306.069+189.427Z" opacity="1" fill="#000000"/>
<path d="M152.283+137.479L7.5+137.479C3.357+137.479+0+134.121+0+129.979C0+125.837+3.357+122.479+7.5+122.479L150.833+122.479C151.302+122.387+151.787+122.339+152.283+122.339C176.753+122.339+196.661+102.431+196.661+77.961C196.661+53.491+176.753+33.583+152.283+33.583C127.812+33.583+107.904+53.491+107.904+77.961C107.904+82.103+104.547+85.461+100.404+85.461C96.261+85.461+92.904+82.103+92.904+77.961C92.904+45.22+119.542+18.583+152.283+18.583C185.024+18.583+211.661+45.22+211.661+77.961C211.661+110.185+185.86+136.496+153.832+137.319C153.332+137.423+152.814+137.479+152.283+137.479Z" opacity="1" fill="#000000"/>
<path d="M244.186+346.866C211.445+346.866+184.807+320.229+184.807+287.488C184.807+283.346+188.164+279.988+192.307+279.988C196.45+279.988+199.807+283.346+199.807+287.488C199.807+311.958+219.715+331.866+244.186+331.866C268.656+331.866+288.564+311.958+288.564+287.488C288.564+263.018+268.656+243.11+244.186+243.11L7.5+243.11C3.357+243.11+0+239.752+0+235.61C0+231.468+3.357+228.11+7.5+228.11L244.186+228.11C276.927+228.11+303.564+254.747+303.564+287.488C303.564+320.229+276.927+346.866+244.186+346.866Z" opacity="1" fill="#000000"/>
</g>
</svg>
