<?xml version="1.0" encoding="UTF-8" standalone="no"?> <!-- Created with Vectornator for iOS (http://vectornator.io/) --><!DOCTYPE svg PUBLIC "-//W3C//DTD SVG 1.1//EN" "http://www.w3.org/Graphics/SVG/1.1/DTD/svg11.dtd">
<svg style="fill-rule:evenodd;clip-rule:evenodd;stroke-linecap:round;stroke-linejoin:round;" xmlns:vectornator="http://vectornator.io" xmlns:xlink="http://www.w3.org/1999/xlink" xmlns="http://www.w3.org/2000/svg" xml:space="preserve" version="1.1" viewBox="0 0 512 512">
<metadata>
<vectornator:setting key="DynamicGuides" value="1"/>
<vectornator:setting key="Units" value="Points"/>
<vectornator:setting key="GuidesVisible" value="1"/>
<vectornator:setting key="RulersVisible" value="1"/>
<vectornator:setting key="SnapToGuides" value="1"/>
<vectornator:setting key="GridSpacing" value="36"/>
</metadata>
<defs/>
<g id="Untitled" vectornator:layerName="Untitled">
<path d="M62.5425+388.157L25.1222+292.202L32.0891+185.275L88.4174+93.6506L176.288+35.3992L330.076+27.0469L381.769+51.1867L149.44+458.788" opacity="1" fill="#ffcc00"/>
<path d="M375+220C363.954+220+355+211.046+355+200C355+194.486+350.514+190+345+190C339.486+190+335+194.486+335+200C335+211.046+326.046+220+315+220C303.954+220+295+211.046+295+200C295+172.43+317.43+150+345+150C372.57+150+395+172.43+395+200C395+211.046+386.046+220+375+220ZM218+200C218+172.43+195.57+150+168+150C140.43+150+118+172.43+118+200C118+211.046+126.954+220+138+220C149.046+220+158+211.046+158+200C158+194.486+162.486+190+168+190C173.514+190+178+194.486+178+200C178+211.046+186.954+220+198+220C209.046+220+218+211.046+218+200ZM388.461+475.107C397.909+469.384+400.928+457.086+395.206+447.639C389.483+438.191+377.184+435.171+367.738+440.894C334.143+461.244+295.505+472+256+472C136.897+472+40+375.103+40+256C40+136.897+136.897+40+256+40C375.103+40+472+136.897+472+256C472+298.589+459.335+340.044+435.374+375.885C429.235+385.068+431.702+397.488+440.885+403.627C450.068+409.767+462.489+407.298+468.627+398.116C497.001+355.674+512+306.531+512+256C512+187.62+485.371+123.333+437.02+74.98C388.667+26.629+324.38-7.15256e-06+256-7.15256e-06C187.62-7.15256e-06+123.333+26.629+74.98+74.98C26.629+123.333-1.38283e-05+187.62-1.38283e-05+256C-1.38283e-05+324.38+26.629+388.667+74.98+437.02C123.333+485.371+187.62+512+256+512C302.813+512+348.617+499.243+388.461+475.107ZM342+291C335.488+291+329.72+294.127+326.068+298.945C326.068+298.945+300.05+327+256+327C211.95+327+185.932+298.945+185.932+298.945C182.28+294.127+176.512+291+170+291C158.954+291+150+299.954+150+311C150+316.691+152.388+321.814+156.204+325.456C159.821+329.468+195.303+367+256+367C316.697+367+352.179+329.468+355.796+325.456C359.612+321.814+362+316.691+362+311C362+299.954+353.046+291+342+291Z" opacity="1" fill="#000000"/>
</g>
</svg>
