<?xml version="1.0" encoding="UTF-8" standalone="no"?> <!-- Created with Vectornator for iOS (http://vectornator.io/) --><!DOCTYPE svg PUBLIC "-//W3C//DTD SVG 1.1//EN" "http://www.w3.org/Graphics/SVG/1.1/DTD/svg11.dtd">
<svg style="fill-rule:evenodd;clip-rule:evenodd;stroke-linecap:round;stroke-linejoin:round;" xmlns:vectornator="http://vectornator.io" xmlns:xlink="http://www.w3.org/1999/xlink" xmlns="http://www.w3.org/2000/svg" xml:space="preserve" version="1.1" viewBox="0 0 512.077 512.077">
<metadata>
<vectornator:setting key="DynamicGuides" value="1"/>
<vectornator:setting key="Units" value="Points"/>
<vectornator:setting key="GuidesVisible" value="1"/>
<vectornator:setting key="RulersVisible" value="1"/>
<vectornator:setting key="SnapToGuides" value="1"/>
<vectornator:setting key="GridSpacing" value="36"/>
</metadata>
<defs/>
<g id="XMLID_1_" vectornator:layerName="XMLID_1_">
<path d="M181.44+201.701L213.628+165.558L299.439+159.886L326.624+191.53L329.148+201.701L181.44+201.701Z" opacity="1" fill="#ffcc00"/>
<path d="M296.849+421.445C296.849+406.817+307.928+394.959+321.595+394.959C335.262+394.959+346.342+406.817+346.342+421.445C346.342+436.073+335.262+447.932+321.595+447.932C307.928+447.932+296.849+436.073+296.849+421.445Z" opacity="1" fill="#ffcc00"/>
<path d="M166.852+421.445C166.852+406.817+178.034+394.959+191.826+394.959C205.619+394.959+216.8+406.817+216.8+421.445C216.8+436.073+205.619+447.932+191.826+447.932C178.034+447.932+166.852+436.073+166.852+421.445Z" opacity="1" fill="#ffcc00"/>
<g opacity="1">
<path d="M506.43+393.192L498.137+370.878C496.213+365.702+490.459+363.064+485.28+364.988C480.103+366.912+477.466+372.668+479.39+377.845L487.682+400.159C495.567+421.377+492.679+444.206+479.758+462.792C466.837+481.378+446.444+492.038+423.807+492.038C400.002+492.038+378.325+479.944+365.821+459.687L355.695+443.282C359.369+437.045+361.486+429.786+361.486+422.038C361.486+398.879+342.645+380.038+319.486+380.038C299.773+380.038+283.198+393.693+278.699+412.038L233.377+412.038C228.878+393.693+212.302+380.038+192.59+380.038C169.431+380.038+150.59+398.879+150.59+422.038C150.59+429.785+152.707+437.044+156.38+443.281L146.254+459.687C133.75+479.944+112.073+492.038+88.268+492.038C65.632+492.038+45.239+481.378+32.318+462.792C19.397+444.206+16.508+421.377+24.394+400.159L72.335+271.154C84.586+238.188+116.447+216.038+151.616+216.038L360.462+216.038C395.631+216.038+427.492+238.187+439.743+271.154L448.036+293.471C449.96+298.648+455.717+301.286+460.893+299.361C466.07+297.437+468.707+291.681+466.783+286.504L458.49+264.187C443.342+223.425+403.947+196.038+360.462+196.038L337.159+196.038C332.405+168.808+308.61+148.038+280.04+148.038L266.039+148.038L266.039+140.538C266.039+111.038+242.039+87.038+212.539+87.038L107.539+87.038C89.067+87.038+74.039+72.01+74.039+53.538C74.039+35.066+89.067+20.038+107.539+20.038L256.166+20.038C261.689+20.038+266.166+15.561+266.166+10.038C266.166+4.51498+261.689+0.0379791+256.166+0.0379791L107.539+0.0379791C78.039+0.0379791+54.039+24.038+54.039+53.538C54.039+83.038+78.039+107.038+107.539+107.038L212.539+107.038C231.011+107.038+246.039+122.066+246.039+140.538L246.039+148.038L232.039+148.038C203.469+148.038+179.674+168.808+174.92+196.038L151.616+196.038C108.131+196.038+68.736+223.425+53.588+264.187L5.64698+393.192C-4.55302+420.638-0.817016+450.167+15.897+474.209C32.61+498.25+58.989+512.039+88.27+512.039C119.062+512.039+147.101+496.395+163.274+470.193L170.831+457.951C177.181+461.814+184.631+464.04+192.592+464.04C212.305+464.04+228.88+450.385+233.379+432.04L278.7+432.04C283.199+450.385+299.775+464.04+319.487+464.04C327.447+464.04+334.896+461.814+341.246+457.952L348.802+470.193C364.976+496.396+393.015+512.039+423.807+512.039C453.087+512.039+479.466+498.25+496.179+474.209C512.894+450.167+516.63+420.638+506.43+393.192ZM232.039+168.038L280.04+168.038C297.534+168.038+312.304+179.92+316.704+196.038L195.374+196.038C199.774+179.921+214.545+168.038+232.039+168.038ZM192.591+444.039C180.46+444.039+170.591+434.17+170.591+422.039C170.591+409.908+180.46+400.039+192.591+400.039C204.722+400.039+214.591+409.908+214.591+422.039C214.591+434.169+204.722+444.039+192.591+444.039ZM297.488+422.039C297.488+409.908+307.357+400.039+319.488+400.039C331.619+400.039+341.488+409.908+341.488+422.039C341.488+434.17+331.619+444.039+319.488+444.039C307.357+444.039+297.488+434.169+297.488+422.039Z" opacity="1" fill="#000000"/>
<path d="M348.886+306.871C348.886+324.516+363.241+338.871+380.886+338.871C398.531+338.871+412.886+324.516+412.886+306.871C412.886+289.226+398.531+274.871+380.886+274.871C363.241+274.871+348.886+289.227+348.886+306.871ZM392.886+306.871C392.886+313.488+387.503+318.871+380.886+318.871C374.269+318.871+368.886+313.488+368.886+306.871C368.886+300.254+374.269+294.871+380.886+294.871C387.503+294.871+392.886+300.255+392.886+306.871Z" opacity="1" fill="#000000"/>
<path d="M260.886+306.871C260.886+324.516+275.241+338.871+292.886+338.871C310.531+338.871+324.886+324.516+324.886+306.871C324.886+289.226+310.531+274.871+292.886+274.871C275.241+274.871+260.886+289.227+260.886+306.871ZM304.886+306.871C304.886+313.488+299.503+318.871+292.886+318.871C286.269+318.871+280.886+313.488+280.886+306.871C280.886+300.254+286.269+294.871+292.886+294.871C299.503+294.871+304.886+300.255+304.886+306.871Z" opacity="1" fill="#000000"/>
<path d="M157.193+248.872C141.302+248.872+128.257+261.292+127.255+276.934C111.613+277.937+99.193+290.981+99.193+306.872C99.193+322.763+111.613+335.808+127.255+336.81C128.258+352.452+141.302+364.872+157.193+364.872C173.084+364.872+186.129+352.452+187.131+336.81C202.773+335.808+215.193+322.763+215.193+306.872C215.193+290.981+202.773+277.937+187.131+276.934C186.128+261.291+173.083+248.872+157.193+248.872ZM195.193+306.871C195.193+312.385+190.707+316.871+185.193+316.871L177.193+316.871C171.67+316.871+167.193+321.348+167.193+326.871L167.193+334.871C167.193+340.385+162.707+344.871+157.193+344.871C151.679+344.871+147.193+340.385+147.193+334.871L147.193+326.871C147.193+321.348+142.716+316.871+137.193+316.871L129.193+316.871C123.679+316.871+119.193+312.385+119.193+306.871C119.193+301.357+123.679+296.871+129.193+296.871L137.193+296.871C142.716+296.871+147.193+292.394+147.193+286.871L147.193+278.871C147.193+273.357+151.679+268.871+157.193+268.871C162.707+268.871+167.193+273.357+167.193+278.871L167.193+286.871C167.193+292.394+171.67+296.871+177.193+296.871L185.193+296.871C190.707+296.871+195.193+301.357+195.193+306.871Z" opacity="1" fill="#000000"/>
<path d="M463.088+332.168C463.088+334.808+464.158+337.378+466.018+339.248C467.878+341.108+470.448+342.178+473.088+342.178C475.718+342.178+478.298+341.108+480.158+339.248C482.018+337.378+483.088+334.808+483.088+332.168C483.088+329.538+482.018+326.958+480.158+325.098C478.298+323.238+475.718+322.168+473.088+322.168C470.448+322.168+467.878+323.238+466.018+325.098C464.158+326.958+463.088+329.539+463.088+332.168Z" opacity="1" fill="#000000"/>
</g>
</g>
</svg>
