<svg width="24" height="27" viewBox="0 0 24 27" fill="none" xmlns="http://www.w3.org/2000/svg">
<path d="M16 8.71118C17.5913 8.71118 19.1174 9.39951 20.2426 10.6248C21.3679 11.85 22 13.5118 22 15.2445V22.8667H18V15.2445C18 14.6669 17.7893 14.113 17.4142 13.7046C17.0391 13.2962 16.5304 13.0667 16 13.0667C15.4696 13.0667 14.9609 13.2962 14.5858 13.7046C14.2107 14.113 14 14.6669 14 15.2445V22.8667H10V15.2445C10 13.5118 10.6321 11.85 11.7574 10.6248C12.8826 9.39951 14.4087 8.71118 16 8.71118V8.71118Z" stroke="#33CCCC" stroke-width="2" stroke-linecap="round" stroke-linejoin="round"/>
<path d="M6 9.80005H2V22.8667H6V9.80005Z" stroke="#33CCCC" stroke-width="2" stroke-linecap="round" stroke-linejoin="round"/>
<path d="M4 6.53329C5.10457 6.53329 6 5.55827 6 4.35551C6 3.15276 5.10457 2.17773 4 2.17773C2.89543 2.17773 2 3.15276 2 4.35551C2 5.55827 2.89543 6.53329 4 6.53329Z" stroke="#33CCCC" stroke-width="2" stroke-linecap="round" stroke-linejoin="round"/>
</svg>
