<?xml version="1.0" encoding="UTF-8" standalone="no"?> <!-- Created with Vectornator for iOS (http://vectornator.io/) --><!DOCTYPE svg PUBLIC "-//W3C//DTD SVG 1.1//EN" "http://www.w3.org/Graphics/SVG/1.1/DTD/svg11.dtd">
<svg style="fill-rule:evenodd;clip-rule:evenodd;stroke-linecap:round;stroke-linejoin:round;" xmlns:vectornator="http://vectornator.io" xmlns:xlink="http://www.w3.org/1999/xlink" xmlns="http://www.w3.org/2000/svg" xml:space="preserve" version="1.1" viewBox="0 0 512.004 512.004">
<metadata>
<vectornator:setting key="DynamicGuides" value="1"/>
<vectornator:setting key="Units" value="Points"/>
<vectornator:setting key="GuidesVisible" value="1"/>
<vectornator:setting key="RulersVisible" value="1"/>
<vectornator:setting key="SnapToGuides" value="1"/>
<vectornator:setting key="GridSpacing" value="36"/>
</metadata>
<defs/>
<g id="Untitled" vectornator:layerName="Untitled">
<path d="M9.65029+128.264L36.3991+89.2734L37.4543+474.225L149.664+460.342L198.26+451.787L254.193+470.665L336.087+450.402L434.356+463.482L473.9+472.649L474.939+89.7913L503.297+130.892L500.604+473.29L472.353+501.071L36.9203+497.417L16.3925+481.624L9.65029+128.264Z" opacity="1" fill="#ffcc00"/>
<g opacity="1">
<path d="M291.057+242.811C292.567+245.764+295.571+247.47+298.677+247.47C299.974+247.47+301.305+247.171+302.543+246.54C303.046+246.284+353.274+220.769+378.046+212.944C382.535+211.519+385.026+206.723+383.601+202.235C382.184+197.746+377.423+195.246+372.892+196.663C346.797+204.915+296.911+230.259+294.795+231.334C290.596+233.467+288.924+238.605+291.057+242.811Z" opacity="1" fill="#000000"/>
<path d="M298.677+145.071C299.974+145.071+301.305+144.772+302.543+144.141C303.046+143.885+353.274+118.37+378.046+110.545C382.535+109.12+385.026+104.324+383.601+99.836C382.184+95.347+377.423+92.847+372.892+94.264C346.797+102.516+296.911+127.86+294.795+128.935C290.597+131.068+288.924+136.205+291.057+140.412C292.567+143.364+295.571+145.071+298.677+145.071Z" opacity="1" fill="#000000"/>
<path d="M503.469+128.004C498.75+128.004+494.936+131.827+494.936+136.537L494.936+469.337C494.936+483.451+483.45+494.937+469.336+494.937L264.536+494.937L264.536+475.302C276.978+470.95+309.387+460.804+341.336+460.804C415.67+460.804+466.145+477.265+466.648+477.435C469.216+478.288+472.084+477.862+474.328+476.257C476.555+474.653+477.869+472.076+477.869+469.336L477.869+93.871C477.869+89.869+475.096+86.404+471.187+85.542C471.187+85.542+464.497+84.049+453.062+81.949C448.445+81.096+443.983+84.168+443.129+88.793C442.276+93.435+445.339+97.881+449.973+98.734C454.334+99.536+457.986+100.244+460.802+100.808L460.802+457.996C441.465+452.927+398.526+443.737+341.335+443.737C304.155+443.737+267.633+455.948+256.334+460.087C246.29+455.65+215.929+443.737+179.201+443.737C120.423+443.737+72.005+453.431+51.201+458.355L51.201+100.475C68.242+96.285+118.572+85.337+179.201+85.337C210.314+85.337+236.997+95.022+247.468+99.4L247.468+435.204C247.468+438.276+249.123+441.118+251.794+442.628C254.465+444.147+257.759+444.104+260.396+442.517C261.241+442.014+345.789+391.513+420.831+366.502C424.321+365.333+426.668+362.082+426.668+358.404L426.668+8.537C426.668+5.738+425.294+3.118+422.99+1.523C420.703-0.0730002+417.768-0.44+415.131+0.542C346.856+26.15+277.771+69.141+277.079+69.568C273.085+72.068+271.865+77.333+274.365+81.327C276.857+85.321+282.122+86.541+286.124+84.041C286.755+83.64+346.856+46.247+409.601+21.014L409.601+352.295C351.352+372.536+290.535+405.586+264.534+420.382L264.534+93.871C264.534+90.637+262.708+87.684+259.815+86.234C258.347+85.509+223.378+68.271+179.201+68.271C102.094+68.271+42.813+84.954+40.321+85.67C36.66+86.711+34.134+90.065+34.134+93.871L34.134+469.338C34.134+472.009+35.397+474.535+37.522+476.148C39.024+477.283+40.833+477.872+42.668+477.872C43.453+477.872+44.238+477.761+45.006+477.539C45.595+477.377+104.603+460.805+179.201+460.805C210.399+460.805+237.057+470.516+247.468+474.876L247.468+494.938L42.668+494.938C28.554+494.938+17.068+483.452+17.068+469.338L17.068+136.538C17.068+131.828+13.245+128.005+8.53501+128.005C3.82501+128.005+0.0020051+131.828+0.0020051+136.538L0.0020051+469.338C0.0020051+492.864+19.142+512.005+42.669+512.005L469.336+512.005C492.862+512.005+512.003+492.865+512.003+469.338L512.003+136.538C512.002+131.827+508.188+128.004+503.469+128.004Z" opacity="1" fill="#000000"/>
<path d="M291.057+191.611C292.567+194.564+295.571+196.27+298.677+196.27C299.974+196.27+301.305+195.971+302.543+195.34C303.046+195.084+353.274+169.569+378.046+161.744C382.535+160.319+385.026+155.523+383.601+151.035C382.184+146.546+377.423+144.046+372.892+145.463C346.797+153.715+296.911+179.059+294.795+180.134C290.596+182.267+288.924+187.405+291.057+191.611Z" opacity="1" fill="#000000"/>
<path d="M291.057+294.011C292.567+296.964+295.571+298.67+298.677+298.67C299.974+298.67+301.305+298.371+302.543+297.74C303.046+297.484+353.274+271.969+378.046+264.144C382.535+262.719+385.026+257.923+383.601+253.435C382.184+248.946+377.423+246.446+372.892+247.863C346.797+256.115+296.911+281.459+294.795+282.534C290.596+284.667+288.924+289.805+291.057+294.011Z" opacity="1" fill="#000000"/>
<path d="M206.748+158.366C154.055+146.001+94.176+161.754+91.659+162.428C87.111+163.648+84.406+168.324+85.626+172.881C86.65+176.695+90.097+179.204+93.861+179.204C94.595+179.204+95.337+179.11+96.08+178.914C96.652+178.752+154.303+163.588+202.858+174.98C207.423+176.047+212.04+173.205+213.115+168.614C214.189+164.032+211.339+159.441+206.748+158.366Z" opacity="1" fill="#000000"/>
<path d="M206.748+209.566C154.055+197.21+94.176+212.954+91.659+213.628C87.111+214.848+84.406+219.525+85.626+224.081C86.65+227.895+90.097+230.404+93.861+230.404C94.595+230.404+95.337+230.31+96.08+230.114C96.652+229.952+154.303+214.788+202.858+226.18C207.423+227.247+212.04+224.405+213.115+219.814C214.189+215.232+211.339+210.641+206.748+209.566Z" opacity="1" fill="#000000"/>
<path d="M291.057+345.211C292.567+348.164+295.571+349.87+298.677+349.87C299.974+349.87+301.305+349.571+302.543+348.94C303.046+348.684+353.274+323.169+378.046+315.344C382.535+313.919+385.026+309.123+383.601+304.635C382.184+300.147+377.423+297.646+372.892+299.063C346.797+307.315+296.911+332.659+294.795+333.734C290.596+335.867+288.924+341.005+291.057+345.211Z" opacity="1" fill="#000000"/>
<path d="M206.748+260.766C154.055+248.41+94.176+264.145+91.659+264.828C87.111+266.048+84.406+270.725+85.626+275.281C86.65+279.095+90.097+281.613+93.861+281.613C94.595+281.613+95.337+281.511+96.08+281.314C96.652+281.152+154.303+265.988+202.858+277.38C207.423+278.447+212.04+275.605+213.115+271.014C214.189+266.432+211.339+261.841+206.748+260.766Z" opacity="1" fill="#000000"/>
<path d="M206.748+363.166C154.055+350.801+94.176+366.554+91.659+367.228C87.111+368.448+84.406+373.125+85.626+377.681C86.65+381.495+90.097+384.013+93.861+384.013C94.595+384.013+95.337+383.911+96.08+383.714C96.652+383.552+154.303+368.388+202.858+379.78C207.423+380.838+212.04+378.005+213.115+373.414C214.189+368.832+211.339+364.241+206.748+363.166Z" opacity="1" fill="#000000"/>
<path d="M206.748+311.966C154.055+299.601+94.176+315.345+91.659+316.028C87.111+317.248+84.406+321.925+85.626+326.481C86.65+330.295+90.097+332.813+93.861+332.813C94.595+332.813+95.337+332.711+96.08+332.514C96.652+332.352+154.303+317.188+202.858+328.58C207.423+329.647+212.04+326.805+213.115+322.214C214.189+317.632+211.339+313.041+206.748+311.966Z" opacity="1" fill="#000000"/>
</g>
<path d="M37.1986+90.4678" opacity="1" fill="#000000"/>
</g>
</svg>
