<?xml version="1.0" encoding="UTF-8" standalone="no"?> <!-- Created with Vectornator for iOS (http://vectornator.io/) --><!DOCTYPE svg PUBLIC "-//W3C//DTD SVG 1.1//EN" "http://www.w3.org/Graphics/SVG/1.1/DTD/svg11.dtd">
<svg style="fill-rule:evenodd;clip-rule:evenodd;stroke-linecap:round;stroke-linejoin:round;" xmlns:vectornator="http://vectornator.io" xmlns:xlink="http://www.w3.org/1999/xlink" xmlns="http://www.w3.org/2000/svg" xml:space="preserve" version="1.1" viewBox="0 0 512 512">
<metadata>
<vectornator:setting key="RulersVisible" value="1"/>
<vectornator:setting key="Units" value="Points"/>
<vectornator:setting key="DynamicGuides" value="1"/>
<vectornator:setting key="GuidesVisible" value="1"/>
<vectornator:setting key="CMYKEnabledKey" value="0"/>
<vectornator:setting key="SnapToGuides" value="1"/>
<vectornator:setting key="GridSpacing" value="36"/>
</metadata>
<defs/>
<g id="Untitled" vectornator:layerName="Untitled">
<path d="M265.693+338.702L305.257+310.711L317.063+324.346L289.94+366.552L265.693+338.702Z" opacity="1" fill="#ffcc00"/>
<path d="M196.748+322.084L210.21+309.548L252.746+339.743L227.35+368.442L196.748+322.084Z" opacity="1" fill="#ffcc00"/>
<path d="M451.72+237.26C434.298+228.55+401.633+228.449+400.251+228.449C396.109+228.449+392.751+231.807+392.751+235.949C392.751+240.091+396.109+243.449+400.251+243.449C408.68+243.45+433.153+244.748+445.012+250.677C446.089+251.216+447.233+251.47+448.36+251.47C451.111+251.47+453.76+249.95+455.074+247.323C456.927+243.618+455.425+239.113+451.72+237.26Z" opacity="1" fill="#000000"/>
<path d="M489.112+344.041L458.137+335.191C456.8+334.809+455.866+333.571+455.866+332.18L455.866+321.841C458.386+320.095+460.79+318.141+463.037+315.96C473.927+305.392+479.924+291.217+479.924+276.045L479.924+261.778L482.919+255.789C486.206+249.214+487.943+241.853+487.943+234.503L487.943+195.853C487.943+191.711+484.585+188.353+480.443+188.353L408.27+188.353C382.026+188.353+360.674+209.705+360.674+235.949L360.674+236.396C360.674+242.508+362.119+248.629+364.852+254.095L368.693+261.777L368.693+274.027C368.693+293.441+378.26+310.86+392.751+321.342L392.753+332.178C392.753+333.849+392.753+334.541+386.56+336.311L371.446+340.629L327.725+324.731C327.882+322.668+327.186+320.57+325.681+318.989L311.71+304.311L311.71+279.671C313.187+278.454+314.643+277.204+316.054+275.882C333.679+259.362+343.787+236.038+343.787+211.891L343.787+192.213C349.109+180.632+351.806+168.377+351.806+155.756L351.806+75.566C351.806+71.424+348.448+68.066+344.306+68.066L232.037+68.066C192.527+68.066+160.384+100.21+160.384+139.719L160.384+155.758C160.384+168.379+163.081+180.634+168.403+192.215L168.403+209.146C168.403+237.182+180.869+262.44+200.48+279.092L200.48+304.312L186.509+318.99C185.004+320.571+184.308+322.669+184.465+324.732L138.32+341.511C134.976+342.727+131.869+344.374+129.048+346.369L121.802+342.746C143.372+333.357+150.205+320.152+150.533+319.496C151.589+317.385+151.589+314.899+150.533+312.788C145.126+301.974+144.471+282.153+143.945+266.227C143.77+260.925+143.604+255.916+143.287+251.456C140.73+215.482+113.382+188.353+79.672+188.353C45.962+188.353+18.613+215.481+16.057+251.456C15.74+255.917+15.574+260.926+15.399+266.229C14.873+282.154+14.217+301.973+8.811+312.787C7.755+314.898+7.755+317.384+8.811+319.495C9.139+320.151+15.958+333.329+37.571+342.729L17.444+352.792C6.684+358.176+0+368.991+0+381.02L0+436.429C0+440.571+3.358+443.929+7.5+443.929C11.642+443.929+15+440.571+15+436.429L15+381.02C15+374.708+18.507+369.033+24.152+366.21L49.215+353.679L57.933+361.964C64.029+367.757+71.849+370.652+79.672+370.652C87.493+370.652+95.317+367.755+101.411+361.964L110.128+353.68L118.3+357.766C114.452+363.923+112.268+371.143+112.268+378.706L112.268+436.431C112.268+440.573+115.626+443.931+119.768+443.931C123.91+443.931+127.268+440.573+127.268+436.431L127.268+378.706C127.268+368.41+133.769+359.128+143.446+355.609L192.098+337.918L212.351+368.299C214.94+372.183+219.089+374.674+223.734+375.134C224.252+375.185+224.767+375.21+225.281+375.21C229.379+375.21+233.304+373.597+236.238+370.664L248.594+358.308L248.594+436.432C248.594+440.574+251.952+443.932+256.094+443.932C260.236+443.932+263.594+440.574+263.594+436.432L263.594+358.308L275.95+370.664C278.883+373.598+282.808+375.211+286.907+375.211C287.42+375.211+287.936+375.186+288.453+375.135C293.099+374.675+297.248+372.184+299.837+368.3L320.091+337.92L368.742+355.611C378.418+359.13+384.92+368.412+384.92+378.708L384.92+436.433C384.92+440.575+388.278+443.933+392.42+443.933C396.562+443.933+399.92+440.575+399.92+436.433L399.92+378.708C399.92+368.28+395.777+358.5+388.827+351.267L390.68+350.738C392.549+350.204+395.099+349.473+397.659+348.218L416.808+367.367L416.808+436.433C416.808+440.575+420.166+443.933+424.308+443.933C428.45+443.933+431.808+440.575+431.808+436.433L431.808+367.367L450.824+348.351C451.835+348.865+452.897+349.299+454.015+349.618L484.991+358.468C492.061+360.488+497+367.035+497+374.389L497+436.433C497+440.575+500.358+443.933+504.5+443.933C508.642+443.933+512+440.575+512+436.433L512+374.389C512+360.371+502.588+347.892+489.112+344.041ZM48.115+330.794C34.086+325.746+27.049+319.016+24.045+315.341C26.093+309.987+27.421+303.855+28.32+297.382C32.456+307.299+39.383+315.765+48.115+321.805C48.115+321.805+48.115+330.794+48.115+330.794ZM91.08+351.092C84.683+357.17+74.662+357.169+68.267+351.091L61.292+344.463C62.469+342.258+63.116+339.758+63.116+337.139L63.116+329.145C68.348+330.78+73.91+331.662+79.674+331.662C85.431+331.662+90.99+330.776+96.231+329.15L96.23+337.138C96.23+339.758+96.876+342.259+98.054+344.465L91.08+351.092ZM79.676+316.662C57.28+316.662+39.061+298.442+39.061+276.047C39.061+271.905+35.703+268.547+31.561+268.547C31.141+268.547+30.731+268.59+30.33+268.657C30.352+268.012+30.373+267.366+30.395+266.727C30.562+261.57+30.723+256.699+31.02+252.521C31.978+239.045+37.363+226.627+46.183+217.553C55.082+208.397+66.976+203.355+79.674+203.355C92.372+203.355+104.265+208.397+113.165+217.553C121.985+226.627+127.37+239.045+128.328+252.521C128.624+256.698+128.786+261.568+128.956+266.724C128.971+267.167+128.986+267.616+129.001+268.062C120.841+255.49+108.239+246.225+91.956+240.993C76.913+236.16+63.975+236.459+63.429+236.473C61.465+236.528+59.601+237.35+58.238+238.764L44.706+252.798C41.831+255.78+41.917+260.528+44.899+263.403C47.881+266.278+52.629+266.191+55.504+263.21L66.764+251.533C76.461+252.007+107.658+255.635+119.791+282.352C116.738+302.04+99.816+316.662+79.676+316.662ZM111.229+330.819L111.23+321.874C119.955+315.867+126.892+307.417+131.031+297.425C131.93+303.883+133.257+310.001+135.301+315.343C132.314+318.983+125.244+325.773+111.229+330.819ZM183.403+209.145L183.403+190.537C183.403+189.408+183.148+188.293+182.657+187.276C177.831+177.282+175.384+166.678+175.384+155.758L175.384+139.72C175.384+108.481+200.799+83.067+232.037+83.067L336.806+83.067L336.806+155.759C336.806+166.679+334.359+177.283+329.533+187.277C329.042+188.294+328.787+189.409+328.787+190.538L328.787+211.893C328.787+232.204+320.622+251.043+305.796+264.94C303.945+266.674+302.024+268.3+300.038+269.815C299.994+269.845+299.952+269.878+299.909+269.909C286.02+280.454+269.008+285.579+251.242+284.428C213.201+281.965+183.403+248.897+183.403+209.145ZM225.632+360.056C225.58+360.108+225.459+360.231+225.214+360.205C224.97+360.181+224.874+360.038+224.833+359.976L201.508+324.988L209.014+317.101L244.399+341.288L225.632+360.056ZM256.095+331.113L215.48+303.351L215.48+289.351C225.989+295.032+237.756+298.585+250.271+299.395C252.248+299.523+254.213+299.586+256.172+299.586C270.513+299.586+284.315+296.158+296.71+289.651L296.71+303.351L256.095+331.113ZM287.357+359.978C287.316+360.04+287.22+360.183+286.976+360.207C286.731+360.238+286.611+360.109+286.558+360.058L267.791+341.291L303.176+317.103L310.683+324.99L287.357+359.978ZM424.308+353.65L407.288+336.631C407.585+335.282+407.753+333.805+407.752+332.176L407.751+329.011C412.474+330.561+417.452+331.481+422.603+331.635C423.181+331.653+423.754+331.661+424.33+331.661C430.022+331.661+435.578+330.801+440.866+329.16L440.866+332.18C440.866+333.676+441.054+335.142+441.408+336.551L424.308+353.65ZM452.591+305.196C444.642+312.91+434.141+316.984+423.054+316.642C401.35+315.991+383.693+296.874+383.693+274.029L383.693+260.008C383.693+258.843+383.422+257.695+382.901+256.654L378.268+247.388C376.571+243.993+375.674+240.193+375.674+236.397L375.674+235.95C375.674+217.976+390.297+203.354+408.27+203.354L472.943+203.354L472.943+234.504C472.943+239.538+471.753+244.579+469.502+249.082L465.716+256.654C465.195+257.696+464.924+258.843+464.924+260.008L464.924+276.046C464.924+287.126+460.544+297.478+452.591+305.196Z" opacity="1" fill="#000000"/>
<path d="M472.423+380.814C468.281+380.814+464.923+384.172+464.923+388.314L464.923+436.429C464.923+440.571+468.281+443.929+472.423+443.929C476.565+443.929+479.923+440.571+479.923+436.429L479.923+388.314C479.923+384.173+476.565+380.814+472.423+380.814Z" opacity="1" fill="#000000"/>
<path d="M39.577+390.728C35.435+390.728+32.077+394.086+32.077+398.228L32.077+436.429C32.077+440.571+35.435+443.929+39.577+443.929C43.719+443.929+47.077+440.571+47.077+436.429L47.077+398.228C47.077+394.087+43.719+390.728+39.577+390.728Z" opacity="1" fill="#000000"/>
<path d="M317.532+158.475C289.166+130.109+229.817+135.532+205.615+139.18C197.992+140.329+192.46+146.78+192.46+154.519L192.46+171.797C192.46+175.939+195.818+179.297+199.96+179.297C204.102+179.297+207.46+175.939+207.46+171.797L207.46+154.518C207.46+154.263+207.628+154.045+207.852+154.011C217.519+152.554+236.702+150.306+256.577+151.631C279.965+153.188+296.905+159.059+306.926+169.081C309.855+172.01+314.604+172.01+317.532+169.081C320.461+166.152+320.461+161.403+317.532+158.475Z" opacity="1" fill="#000000"/>
<path d="M167.884+396.853C163.742+396.853+160.384+400.211+160.384+404.353L160.384+436.43C160.384+440.572+163.742+443.93+167.884+443.93C172.026+443.93+175.384+440.572+175.384+436.43L175.384+404.353C175.384+400.212+172.026+396.853+167.884+396.853Z" opacity="1" fill="#000000"/>
<path d="M344.306+396.853C340.164+396.853+336.806+400.211+336.806+404.353L336.806+436.43C336.806+440.572+340.164+443.93+344.306+443.93C348.448+443.93+351.806+440.572+351.806+436.43L351.806+404.353C351.806+400.212+348.448+396.853+344.306+396.853Z" opacity="1" fill="#000000"/>
</g>
</svg>
