<svg width="24" height="27" viewBox="0 0 24 27" fill="none" xmlns="http://www.w3.org/2000/svg">
<g clip-path="url(#clip0)">
<path d="M17 2.2666H7C4.23858 2.2666 2 4.70416 2 7.71105V18.5999C2 21.6068 4.23858 24.0444 7 24.0444H17C19.7614 24.0444 22 21.6068 22 18.5999V7.71105C22 4.70416 19.7614 2.2666 17 2.2666Z" stroke="#33CCCC" stroke-width="2" stroke-linecap="round" stroke-linejoin="round"/>
<path d="M16 12.4696C16.1234 13.3758 15.9813 14.3013 15.5938 15.1145C15.2063 15.9277 14.5931 16.5871 13.8416 16.999C13.0901 17.4109 12.2384 17.5543 11.4078 17.4087C10.5771 17.2632 9.80976 16.8361 9.21484 16.1883C8.61992 15.5405 8.22773 14.705 8.09407 13.8005C7.9604 12.896 8.09207 11.9686 8.47033 11.1503C8.84859 10.332 9.45419 9.66434 10.201 9.2424C10.9478 8.82045 11.7978 8.66566 12.63 8.80005C13.4789 8.93712 14.2649 9.36786 14.8717 10.0286C15.4785 10.6894 15.8741 11.5452 16 12.4696Z" stroke="#33CCCC" stroke-width="2" stroke-linecap="round" stroke-linejoin="round"/>
</g>
<defs>
<clipPath id="clip0">
<rect width="24" height="26.1333" fill="white" transform="translate(0 0.0888672)"/>
</clipPath>
</defs>
</svg>
