<?xml version="1.0" standalone="no"?>
<!DOCTYPE svg PUBLIC "-//W3C//DTD SVG 20010904//EN"
 "http://www.w3.org/TR/2001/REC-SVG-20010904/DTD/svg10.dtd">
<svg version="1.0" xmlns="http://www.w3.org/2000/svg"
 width="542.000000pt" height="945.000000pt" viewBox="0 0 542.000000 945.000000"
 preserveAspectRatio="xMidYMid meet">

<g transform="translate(0.000000,945.000000) scale(0.100000,-0.100000)"
fill="#000000" stroke="none">
<path d="M2529 9306 c-2 -3 -66 -12 -142 -20 -75 -8 -142 -18 -148 -22 -6 -3
-36 -10 -67 -14 -77 -10 -130 -24 -317 -87 -151 -51 -290 -114 -484 -218 -181
-98 -430 -309 -650 -551 -73 -81 -211 -272 -252 -349 -12 -22 -46 -79 -75
-127 -172 -279 -299 -754 -311 -1163 -12 -379 67 -817 191 -1064 20 -39 36
-82 36 -95 0 -26 19 -64 65 -134 14 -21 29 -52 34 -68 13 -45 195 -317 261
-390 33 -36 60 -71 60 -78 0 -21 281 -286 303 -286 7 0 53 -35 102 -77 122
-104 235 -176 387 -244 71 -32 149 -69 175 -83 103 -54 185 -86 283 -112 36
-9 76 -23 90 -30 l25 -12 -5 -1763 c-4 -1396 -3 -1778 7 -1829 15 -78 79 -211
125 -262 46 -51 143 -124 203 -153 81 -40 233 -65 335 -55 162 16 239 57 381
199 103 104 139 186 150 351 4 63 8 883 8 1823 l1 1707 33 0 c39 0 144 28 247
65 41 14 89 31 107 36 41 12 365 176 418 212 220 146 304 215 497 407 98 98
178 183 178 190 0 6 20 34 44 61 60 66 199 289 268 429 32 63 78 176 103 250
26 74 50 139 54 145 5 5 18 51 30 100 12 50 29 117 37 150 25 102 49 410 47
600 -2 140 -21 317 -44 400 -12 44 -25 109 -29 145 -6 60 -114 390 -141 435
-4 6 -41 78 -84 160 -42 83 -84 157 -92 165 -16 17 -60 78 -130 185 -67 103
-135 182 -253 297 -162 158 -289 268 -309 268 -6 0 -42 22 -79 49 -37 27 -94
63 -127 82 -33 18 -62 36 -65 39 -11 14 -258 134 -324 157 -39 14 -107 39
-151 55 -98 36 -259 78 -300 78 -17 0 -46 5 -65 10 -69 21 -288 40 -461 40
-97 0 -178 -2 -180 -4z m507 -281 c147 -21 184 -29 354 -77 172 -49 441 -165
530 -228 16 -11 31 -20 35 -20 9 0 118 -75 206 -141 216 -165 395 -358 559
-604 56 -84 200 -363 200 -387 0 -8 4 -18 9 -23 11 -13 66 -173 90 -265 55
-213 75 -377 74 -625 0 -203 -8 -286 -39 -445 -21 -108 -63 -264 -84 -315 -5
-11 -18 -47 -30 -80 -28 -78 -121 -268 -183 -373 -128 -218 -385 -507 -587
-659 -176 -132 -362 -239 -545 -313 -44 -17 -89 -36 -100 -41 -11 -4 -51 -18
-90 -29 -38 -11 -83 -25 -100 -30 -66 -20 -287 -59 -400 -71 -247 -25 -587 4
-820 70 -16 5 -50 14 -75 21 -621 175 -1200 674 -1472 1268 -21 48 -43 96 -48
107 -85 184 -152 483 -170 752 -10 147 0 409 19 510 5 27 15 77 21 113 59 321
221 675 444 975 83 111 342 367 457 453 512 378 1137 542 1745 457z m-293
-5000 c266 0 267 0 267 -21 0 -21 -5 -22 -192 -29 -106 -3 -247 -5 -313 -3
-106 3 -120 5 -123 21 -8 38 5 48 50 40 24 -5 163 -8 311 -8z m267 -150 l0
-25 -309 0 c-205 0 -312 4 -316 10 -4 6 -4 17 -1 25 5 13 54 15 316 15 l310 0
0 -25z m0 -355 l0 -30 -314 0 c-314 0 -314 0 -319 22 -3 12 -4 25 -1 30 3 4
147 8 320 8 l314 0 0 -30z m0 -1712 c-1 -1292 -1 -1287 -42 -1363 -57 -105
-206 -166 -340 -141 -84 16 -134 42 -185 93 -82 85 -77 -14 -70 1398 4 687 6
1251 7 1253 0 1 142 2 315 2 l315 0 0 -1242z"/>
<path d="M2550 8659 c-285 -38 -423 -73 -621 -159 -602 -261 -1036 -796 -1164
-1435 -52 -261 -54 -514 -4 -774 78 -409 288 -792 589 -1074 320 -301 699
-476 1161 -536 153 -20 426 -11 549 19 19 4 71 16 115 25 82 18 237 66 290 89
17 8 55 24 85 37 30 12 67 31 82 41 14 10 30 18 35 18 16 0 210 127 284 185
168 134 311 288 428 462 61 91 171 293 186 343 4 14 13 39 21 55 37 85 88 283
115 450 22 129 16 435 -9 583 -99 567 -401 1033 -872 1345 -122 81 -324 181
-460 227 -248 84 -599 127 -810 99z m502 -298 c389 -80 751 -296 992 -593 102
-126 108 -134 168 -238 160 -279 228 -536 228 -865 0 -221 -24 -370 -90 -559
-139 -404 -441 -757 -821 -959 -440 -236 -971 -268 -1428 -87 -113 44 -289
136 -351 182 -273 203 -454 414 -578 671 -69 142 -105 252 -152 462 -16 73
-32 289 -25 355 3 36 8 90 11 120 17 181 72 374 158 555 238 497 692 851 1226
954 151 29 155 29 370 26 144 -3 220 -9 292 -24z"/>
<path d="M1690 6579 c-24 -5 -68 -20 -97 -34 -106 -53 -196 -190 -210 -325 -5
-50 -3 -60 16 -79 46 -46 104 -17 120 61 24 109 71 182 141 217 57 29 88 33
143 17 87 -25 153 -103 176 -206 18 -77 32 -103 64 -114 22 -8 33 -6 55 11 33
25 38 51 21 123 -19 86 -56 156 -116 221 -60 64 -106 90 -191 108 -59 12 -59
12 -122 0z"/>
<path d="M3550 6575 c-95 -23 -159 -68 -215 -149 -40 -59 -85 -180 -85 -232 0
-42 30 -74 68 -74 32 0 72 36 72 64 0 32 23 99 46 138 129 207 371 142 424
-115 6 -33 20 -67 31 -78 26 -26 65 -24 94 5 27 27 27 41 -2 146 -30 109 -82
187 -159 241 -84 57 -183 77 -274 54z"/>
<path d="M2463 5913 c-20 -7 -15 -76 9 -140 28 -77 100 -147 171 -168 137 -41
275 44 316 196 15 55 11 99 -10 112 -20 13 -69 1 -69 -16 0 -46 -36 -125 -72
-159 -34 -34 -45 -38 -89 -38 -27 0 -63 7 -80 15 -37 19 -75 79 -90 142 -7 26
-17 51 -23 55 -12 9 -44 9 -63 1z"/>
</g>
</svg>
