<?xml version="1.0" encoding="UTF-8" standalone="no"?> <!-- Created with Vectornator for iOS (http://vectornator.io/) --><!DOCTYPE svg PUBLIC "-//W3C//DTD SVG 1.1//EN" "http://www.w3.org/Graphics/SVG/1.1/DTD/svg11.dtd">
<svg style="fill-rule:evenodd;clip-rule:evenodd;stroke-linecap:round;stroke-linejoin:round;" xmlns:vectornator="http://vectornator.io" xmlns:xlink="http://www.w3.org/1999/xlink" xmlns="http://www.w3.org/2000/svg" xml:space="preserve" version="1.1" viewBox="0 0 512 512">
<metadata>
<vectornator:setting key="DynamicGuides" value="1"/>
<vectornator:setting key="Units" value="Points"/>
<vectornator:setting key="GuidesVisible" value="1"/>
<vectornator:setting key="RulersVisible" value="1"/>
<vectornator:setting key="SnapToGuides" value="1"/>
<vectornator:setting key="GridSpacing" value="36"/>
</metadata>
<defs/>
<g id="Untitled" vectornator:layerName="Untitled">
<path d="M146.619+395.215L141.687+302.936L371.8+302.029L399.019+266.956L403.789+140.54L456.017+139.771L492.871+167.736L494.847+491.651L429.592+428.09L169.795+431.17L146.619+395.215Z" opacity="1" fill="#ffcc00"/>
<path d="M304+96L112+96C103.168+96+96+103.168+96+112C96+120.832+103.168+128+112+128L304+128C312.832+128+320+120.832+320+112C320+103.168+312.832+96+304+96Z" opacity="1" fill="#000000"/>
<path d="M240+160L112+160C103.168+160+96+167.168+96+176C96+184.832+103.168+192+112+192L240+192C248.832+192+256+184.832+256+176C256+167.168+248.832+160+240+160Z" opacity="1" fill="#000000"/>
<path d="M352+0L64+0C28.704+0+0+28.704+0+64L0+384C0+390.208+3.584+395.872+9.216+398.496C11.36+399.488+13.696+400+16+400C19.68+400+23.328+398.72+26.24+396.288L117.792+320L352+320C387.296+320+416+291.296+416+256L416+64C416+28.704+387.296+0+352+0ZM384+256C384+273.632+369.664+288+352+288L112+288C108.256+288+104.64+289.312+101.76+291.712L32+349.856L32+64C32+46.368+46.336+32+64+32L352+32C369.664+32+384+46.368+384+64L384+256Z" opacity="1" fill="#000000"/>
<path d="M448+128C439.168+128+432+135.168+432+144C432+152.832+439.168+160+448+160C465.664+160+480+174.368+480+192L480+462.688L425.984+419.488C423.168+417.248+419.616+416+416+416L192+416C174.336+416+160+401.632+160+384L160+368C160+359.168+152.832+352+144+352C135.168+352+128+359.168+128+368L128+384C128+419.296+156.704+448+192+448L410.368+448L485.984+508.512C488.896+510.816+492.448+512+496+512C498.336+512+500.704+511.488+502.944+510.432C508.48+507.744+512+502.144+512+496L512+192C512+156.704+483.296+128+448+128Z" opacity="1" fill="#000000"/>
<path d="M458.23+595.048" opacity="1" fill="#ffcc00"/>
</g>
</svg>
